<svg xmlns="http://www.w3.org/2000/svg" width="132" height="49" viewBox="0 0 132 49" fill="none"><path fill-rule="evenodd" clip-rule="evenodd" d="M48.371 0C49.1281 0 49.9933 0.215385 50.6422 0.646154C52.2645 1.61539 52.9134 3.44615 52.2645 5.27692C52.1564 5.81538 52.0212 6.38077 51.886 6.94616C51.7508 7.51154 51.6156 8.07693 51.5075 8.61539C51.3993 8.99231 51.3182 9.36923 51.2371 9.74615C51.156 10.1231 51.0748 10.5 50.9667 10.8769C50.8045 11.5768 50.6423 12.2498 50.4801 12.9228L50.48 12.9231C50.3178 13.5962 50.1555 14.2692 49.9933 14.9692C49.8311 15.7769 49.6418 16.5576 49.4526 17.3383C49.2633 18.1191 49.074 18.9 48.9118 19.7077L48.6955 20.5692C48.4258 21.8043 48.1562 23.0661 47.8866 24.3281L47.8865 24.3284L47.8843 24.3385C47.6139 25.6038 47.3436 26.8692 47.0732 28.1077C46.8569 29.1846 46.0998 32.4154 42.5308 33.3846C41.5574 33.7077 40.584 33.7077 39.8269 33.7077H37.6639C37.772 33.2769 37.8802 32.8462 37.9883 32.3077L38.0965 31.8769C38.1587 31.815 38.1851 31.7886 38.1964 31.757C38.2046 31.7336 38.2046 31.7073 38.2046 31.6615C39.178 27.1385 38.0965 22.5077 35.1763 18.9538C32.3644 15.4 28.0382 13.3538 23.3877 13.3538H18.7371H18.3045H17.6555C17.756 12.9537 17.8331 12.6001 17.8978 12.3036L17.8979 12.3029L17.898 12.3025C17.9724 11.9612 18.0303 11.6959 18.0882 11.5231C18.8452 8.83077 21.0083 7.32308 23.9284 7.32308H25.5507H36.366C37.0149 7.43077 37.3394 7.21539 37.772 6.89231C39.2861 5.60003 40.9084 4.41543 42.5307 3.23084L42.5308 3.23077C43.5041 2.58462 44.4775 1.83077 45.4509 1.07692C46.4243 0.323076 47.3976 0 48.371 0ZM30.0931 35.5385H34.7437H35.1763H35.8253C35.7249 35.9382 35.6478 36.2915 35.5832 36.5877L35.5829 36.5894L35.5828 36.5897C35.5084 36.931 35.4505 37.1964 35.3927 37.3692C34.6356 40.0615 32.4725 41.5692 29.5524 41.5692H27.9301H17.1148C16.4659 41.4615 16.1414 41.6769 15.7088 42C14.1947 43.2922 12.5725 44.4768 10.9503 45.6613L10.9501 45.6615C9.97666 46.3077 9.00329 47.0615 8.02992 47.8154C7.05654 48.5692 6.08315 48.8923 5.10978 48.8923C4.3527 48.8923 3.59564 48.6769 2.83857 48.2461C1.21627 47.2769 0.567347 45.5538 1.10812 43.5077C1.21627 42.9692 1.35147 42.4038 1.48666 41.8385C1.62185 41.2731 1.75703 40.7077 1.86518 40.1692C1.97334 39.7923 2.05445 39.4154 2.13557 39.0385C2.21668 38.6615 2.2978 38.2846 2.40595 37.9077C2.56816 37.2078 2.73036 36.5348 2.89256 35.8618L2.89265 35.8615C3.05488 35.1884 3.2171 34.5154 3.37933 33.8154C3.54154 33.0077 3.7308 32.227 3.92005 31.4463C4.10934 30.6655 4.29862 29.8847 4.46086 29.0769L4.78532 28.3231C5.05496 27.088 5.32458 25.8262 5.59422 24.5642L5.59431 24.5639L5.59646 24.5538C5.86685 23.2885 6.13723 22.0231 6.40762 20.7846C6.62393 19.7077 7.38099 16.4769 10.9501 15.5077C11.9234 15.1846 12.8968 15.1846 13.6539 15.1846H15.8169C15.7088 15.6154 15.6006 16.0462 15.4925 16.5846L15.3843 17.0154C15.3221 17.0774 15.2956 17.1037 15.2844 17.1354C15.2762 17.1587 15.2762 17.1851 15.2762 17.2308C14.3028 21.7538 15.3843 26.3846 18.3045 29.9385C21.1164 33.4923 25.4426 35.5385 30.0931 35.5385ZM23.4958 15.0769H18.4126C18.1963 15.0769 17.98 15.1846 17.8718 15.2923C17.858 15.3061 17.8446 15.319 17.8315 15.3316C17.6404 15.5156 17.5197 15.6318 17.1148 17.4462L17.0066 17.7692V17.9846C16.1414 22.0769 17.2229 26.1692 19.9268 29.2923C22.4143 32.0923 26.0915 33.8154 30.0931 33.8154H33.9867H34.3111H35.2845C35.5008 33.8154 35.7171 33.7077 35.8253 33.6C35.9334 33.4923 36.0416 33.2769 36.1497 33.0615L36.5823 31.1231V30.9077C37.4476 26.8154 36.366 22.7231 33.6622 19.6C31.1747 16.8 27.4975 15.0769 23.4958 15.0769ZM67.6222 15.6154C69.4609 14.1077 71.6239 13.3538 74.2196 13.3538C77.4642 13.3538 80.2762 14.4308 82.3311 16.8C84.4941 18.9538 85.5757 21.7538 85.5757 24.9846C85.5757 28.2154 84.4941 31.0154 82.3311 33.1692C80.168 35.3231 77.4642 36.4 74.2196 36.4C72.381 36.4 70.6505 35.9692 69.1364 35.1077V40.1692C69.1364 40.3846 69.0283 40.6 68.8119 40.7077L63.188 43.0769H62.9717C62.8635 43.0769 62.7554 43.0769 62.6472 42.9692C62.5391 42.8615 62.4309 42.6462 62.4309 42.4308V14.5385C62.4309 14.1077 62.7554 13.8923 63.0798 13.8923H64.9184C65.0266 13.8923 65.1348 13.8923 65.2429 14L67.6222 15.6154ZM73.787 29.7231C75.193 29.7231 76.3827 29.2923 77.356 28.3231C78.3294 27.3538 78.762 26.1692 78.762 24.6615C78.762 23.6923 78.5457 22.8308 78.1131 22.0769C77.6805 21.2154 77.1397 20.6769 76.3827 20.2462C75.6256 19.8154 74.7604 19.6 73.787 19.6C72.8136 19.6 71.9484 19.8154 71.1913 20.2462C70.4343 20.6769 69.8935 21.3231 69.4609 22.0769C69.0283 22.8308 68.8119 23.6923 68.8119 24.6615C68.8119 26.1692 69.2446 27.3538 70.2179 28.3231C71.1913 29.2923 72.2729 29.7231 73.787 29.7231ZM98.8785 13.3538C95.5257 13.3538 92.7138 14.4308 90.4426 16.5846C88.1713 18.7385 87.0898 21.5385 87.0898 24.7692C87.0898 26.9231 87.6306 28.8615 88.604 30.5846C89.5773 32.3077 90.9833 33.7077 92.8219 34.6769C94.6605 35.6462 96.6073 36.1846 98.8785 36.1846C102.231 36.1846 104.935 35.1077 107.206 32.9538C109.478 30.8 110.559 28 110.559 24.7692C110.559 21.5385 109.478 18.7385 107.206 16.5846C104.935 14.4308 102.123 13.3538 98.8785 13.3538ZM102.339 28.3231C101.474 29.2923 100.285 29.7231 98.8785 29.7231C98.1214 29.7231 97.4725 29.6154 96.8236 29.4C96.1747 29.1846 95.7421 28.8615 95.3094 28.4308C94.8768 28 94.5524 27.4615 94.3361 26.8154C94.1198 26.1692 94.0116 25.5231 94.0116 24.7692C94.0116 23.2615 94.4442 22.0769 95.4176 21.1077C96.2828 20.1385 97.4725 19.7077 98.9867 19.7077C100.393 19.7077 101.582 20.1385 102.556 21.1077C103.421 22.0769 103.962 23.2615 103.962 24.7692C103.637 26.2769 103.205 27.4615 102.339 28.3231ZM114.128 6.46154L119.752 8.61538C119.968 8.72308 120.076 8.93846 120.185 9.15385V32.3077C120.185 32.5231 120.076 32.7385 119.86 32.8462L114.236 35.5385C114.236 35.6462 114.128 35.6462 114.02 35.6462C113.912 35.6462 113.804 35.6462 113.695 35.5385C113.479 35.4308 113.371 35.2154 113.371 35V7.10769C113.371 6.89231 113.479 6.67692 113.587 6.56923C113.695 6.46154 113.912 6.35384 114.128 6.46154ZM130.784 6.13847C130.676 6.03077 130.459 6.03078 130.243 6.03078L124.619 7.75385C124.403 7.86155 124.186 8.07693 124.186 8.29231V11.7385C124.186 12.0615 124.403 12.3846 124.835 12.3846H130.459C130.784 12.3846 131.108 12.1692 131.108 11.7385V6.56924C131 6.35385 130.892 6.24616 130.784 6.13847ZM124.835 13.8923H130.459C130.784 13.8923 131 14.1077 131 14.4308V35C131 35.2154 130.892 35.4308 130.784 35.5385C130.676 35.6461 130.567 35.6461 130.459 35.6461H130.243L124.619 33.7077C124.294 33.6 124.186 33.3846 124.186 33.1692V14.5385C124.186 14.1077 124.511 13.8923 124.835 13.8923Z" fill="url(#paint0_linear)"></path><defs><linearGradient id="paint0_linear" x1="128.034" y1="20.9572" x2="124.217" y2="57.3777" gradientUnits="userSpaceOnUse"><stop stop-color="#00ACBD"></stop><stop offset="0.9974" stop-color="#0083BA"></stop></linearGradient></defs></svg>